{
    "asset" : {
        "generator" : "Khronos glTF Blender I/O v3.2.43",
        "version" : "2.0"
    },
    "scene" : 0,
    "scenes" : [
        {
            "name" : "Scene",
            "nodes" : [
                0,
                18
            ]
        }
    ],
    "nodes" : [
        {
            "camera" : 0,
            "name" : "Camera",
            "rotation" : [
                -0.027141140773892403,
                -0.7065868973731995,
                -0.027142828330397606,
                0.7065845131874084
            ],
            "translation" : [
                -14.277587890625,
                2.072377920150757,
                -0.281185120344162
            ]
        },
        {
            "name" : "Bone.003",
            "rotation" : [
                0.13487613201141357,
                -0.11169715225696564,
                -0.2025885134935379,
                0.963478147983551
            ],
            "scale" : [
                1.0000001192092896,
                1,
                1
            ],
            "translation" : [
                -8.940696716308594e-08,
                0.48477765917778015,
                -4.470348358154297e-08
            ]
        },
        {
            "children" : [
                1
            ],
            "name" : "Bone.002",
            "rotation" : [
                -0.10308340191841125,
                -0.1524471491575241,
                -0.2984991669654846,
                0.936499834060669
            ],
            "scale" : [
                0.9999998807907104,
                0.9999999403953552,
                0.9999999403953552
            ],
            "translation" : [
                1.6763806343078613e-08,
                1.1392500400543213,
                -3.725290298461914e-08
            ]
        },
        {
            "children" : [
                2
            ],
            "name" : "Bone.001",
            "rotation" : [
                0.28589847683906555,
                -0.0634438619017601,
                -0.19811993837356567,
                0.9354065656661987
            ],
            "scale" : [
                1.0000001192092896,
                1.0000001192092896,
                0.9999998807907104
            ],
            "translation" : [
                3.3527612686157227e-08,
                2.9215660095214844,
                1.7695128917694092e-07
            ]
        },
        {
            "name" : "Bone.006",
            "rotation" : [
                0.010192331857979298,
                0.0006772577180527151,
                -0.06681229919195175,
                0.9977132678031921
            ],
            "scale" : [
                1,
                1.0000001192092896,
                0.9999999403953552
            ],
            "translation" : [
                1.1920928955078125e-07,
                0.6214796304702759,
                -5.092006176710129e-07
            ]
        },
        {
            "children" : [
                4
            ],
            "name" : "Bone.005",
            "rotation" : [
                0.1021968275308609,
                -3.042730511992886e-09,
                -0.0005679767346009612,
                0.9947641491889954
            ],
            "scale" : [
                1,
                1,
                0.9999999403953552
            ],
            "translation" : [
                -9.313225746154785e-08,
                1.7442468404769897,
                1.1886004358530045e-07
            ]
        },
        {
            "children" : [
                5
            ],
            "name" : "Bone.004",
            "rotation" : [
                -0.14496107399463654,
                3.1069117056858886e-08,
                -0.02156493254005909,
                0.9892023205757141
            ],
            "scale" : [
                0.9999999403953552,
                1,
                1
            ],
            "translation" : [
                3.3527612686157227e-08,
                2.9215660095214844,
                1.7695128917694092e-07
            ]
        },
        {
            "name" : "Bone.009",
            "rotation" : [
                -0.020075814798474312,
                -0.001847107196226716,
                -0.09371794015169144,
                0.9953946471214294
            ],
            "scale" : [
                0.9999999403953552,
                0.9999999403953552,
                1
            ],
            "translation" : [
                5.960464477539063e-08,
                0.6354844570159912,
                7.12461769580841e-08
            ]
        },
        {
            "children" : [
                7
            ],
            "name" : "Bone.008",
            "rotation" : [
                0.05177200213074684,
                7.285728687023152e-10,
                -8.573683589929715e-05,
                0.9986589550971985
            ],
            "scale" : [
                1,
                0.9999998211860657,
                1
            ],
            "translation" : [
                -6.332993507385254e-08,
                1.689575433731079,
                9.509676601737738e-08
            ]
        },
        {
            "children" : [
                8
            ],
            "name" : "Bone.007",
            "rotation" : [
                -0.058274392038583755,
                -1.14892406699596e-08,
                -0.022075312212109566,
                0.9980565905570984
            ],
            "scale" : [
                0.9999999403953552,
                1,
                0.9999999403953552
            ],
            "translation" : [
                3.3527612686157227e-08,
                2.9215660095214844,
                1.7695128917694092e-07
            ]
        },
        {
            "name" : "Bone.012",
            "rotation" : [
                0.009473904967308044,
                0.0007772849639877677,
                -0.08166691660881042,
                0.996614396572113
            ],
            "translation" : [
                8.800998330116272e-08,
                0.6296639442443848,
                -9.220093488693237e-08
            ]
        },
        {
            "children" : [
                10
            ],
            "name" : "Bone.011",
            "rotation" : [
                -0.028012016788125038,
                2.795064624194765e-09,
                -6.3595078245271e-05,
                0.9996076226234436
            ],
            "translation" : [
                -1.0989606380462646e-07,
                1.671521544456482,
                -7.380731403827667e-08
            ]
        },
        {
            "children" : [
                11
            ],
            "name" : "Bone.010",
            "rotation" : [
                0.030327653512358665,
                -3.320173291854189e-08,
                -0.0220754723995924,
                0.999296247959137
            ],
            "scale" : [
                1,
                0.9999999403953552,
                1
            ],
            "translation" : [
                3.3527612686157227e-08,
                2.9215660095214844,
                1.7695128917694092e-07
            ]
        },
        {
            "name" : "Bone.015",
            "rotation" : [
                -0.011968056671321392,
                -0.0019809578079730272,
                -0.14778286218643188,
                0.988945484161377
            ],
            "scale" : [
                1,
                0.9999999403953552,
                0.9999999403953552
            ],
            "translation" : [
                5.75091689825058e-08,
                0.5626271367073059,
                2.728775143623352e-07
            ]
        },
        {
            "children" : [
                13
            ],
            "name" : "Bone.014",
            "rotation" : [
                -0.09550337493419647,
                -1.6957736326261852e-09,
                -0.0006088744848966599,
                0.9954289197921753
            ],
            "translation" : [
                -5.3085386753082275e-08,
                1.692238688468933,
                -3.157183527946472e-07
            ]
        },
        {
            "children" : [
                14
            ],
            "name" : "Bone.013",
            "rotation" : [
                0.12213737517595291,
                -5.009609083117539e-08,
                -0.021522630006074905,
                0.9922798275947571
            ],
            "scale" : [
                1,
                1.0000001192092896,
                1
            ],
            "translation" : [
                3.3527612686157227e-08,
                2.9215660095214844,
                1.7695128917694092e-07
            ]
        },
        {
            "children" : [
                3,
                6,
                9,
                12,
                15
            ],
            "name" : "Bone",
            "rotation" : [
                -0.006761364173144102,
                0.0006137936725281179,
                0.022130440920591354,
                0.9997320771217346
            ],
            "scale" : [
                0.9999999403953552,
                0.9999998211860657,
                0.9999998211860657
            ],
            "translation" : [
                -8.381903171539307e-08,
                5.960464477539063e-08,
                -6.705522537231445e-08
            ]
        },
        {
            "extras" : {
                "ant_landscape" : {}
            },
            "mesh" : 0,
            "name" : "Cube",
            "skin" : 0
        },
        {
            "children" : [
                17,
                16
            ],
            "name" : "Armature",
            "rotation" : [
                0.06136435270309448,
                -0.045461129397153854,
                -0.5679498314857483,
                0.8195124864578247
            ],
            "translation" : [
                -4.49983549118042,
                -1.759188175201416,
                -3.734696865081787
            ]
        }
    ],
    "cameras" : [
        {
            "name" : "Camera.001",
            "perspective" : {
                "aspectRatio" : 1.7777777777777777,
                "yfov" : 0.39959652046304894,
                "zfar" : 1000,
                "znear" : 0.10000000149011612
            },
            "type" : "perspective"
        }
    ],
    "materials" : [
        {
            "doubleSided" : true,
            "name" : "Material.001",
            "pbrMetallicRoughness" : {}
        }
    ],
    "meshes" : [
        {
            "name" : "Cube.001",
            "primitives" : [
                {
                    "attributes" : {
                        "POSITION" : 0,
                        "NORMAL" : 1,
                        "TANGENT" : 2,
                        "TEXCOORD_0" : 3,
                        "JOINTS_0" : 4,
                        "JOINTS_1" : 5,
                        "WEIGHTS_1" : 6
                    },
                    "indices" : 7,
                    "material" : 0
                }
            ]
        }
    ],
    "skins" : [
        {
            "inverseBindMatrices" : 8,
            "joints" : [
                16,
                3,
                2,
                1,
                6,
                5,
                4,
                9,
                8,
                7,
                12,
                11,
                10,
                15,
                14,
                13
            ],
            "name" : "Armature"
        }
    ],
    "accessors" : [
        {
            "bufferView" : 0,
            "componentType" : 5126,
            "count" : 347,
            "max" : [
                1.0444586277008057,
                0.42443013191223145,
                -2.0194287300109863
            ],
            "min" : [
                -4.777554988861084,
                -2.2137746810913086,
                -4.455874919891357
            ],
            "type" : "VEC3"
        },
        {
            "bufferView" : 1,
            "componentType" : 5126,
            "count" : 347,
            "type" : "VEC3"
        },
        {
            "bufferView" : 2,
            "componentType" : 5126,
            "count" : 347,
            "type" : "VEC4"
        },
        {
            "bufferView" : 3,
            "componentType" : 5126,
            "count" : 347,
            "type" : "VEC2"
        },
        {
            "bufferView" : 4,
            "componentType" : 5121,
            "count" : 347,
            "type" : "VEC4"
        },
        {
            "bufferView" : 5,
            "componentType" : 5121,
            "count" : 347,
            "type" : "VEC4"
        },
        {
            "bufferView" : 6,
            "componentType" : 5126,
            "count" : 347,
            "type" : "VEC4"
        },
        {
            "bufferView" : 7,
            "componentType" : 5123,
            "count" : 1104,
            "type" : "SCALAR"
        },
        {
            "bufferView" : 8,
            "componentType" : 5126,
            "count" : 16,
            "type" : "MAT4"
        }
    ],
    "bufferViews" : [
        {
            "buffer" : 0,
            "byteLength" : 4164,
            "byteOffset" : 0
        },
        {
            "buffer" : 0,
            "byteLength" : 4164,
            "byteOffset" : 4164
        },
        {
            "buffer" : 0,
            "byteLength" : 5552,
            "byteOffset" : 8328
        },
        {
            "buffer" : 0,
            "byteLength" : 2776,
            "byteOffset" : 13880
        },
        {
            "buffer" : 0,
            "byteLength" : 1388,
            "byteOffset" : 16656
        },
        {
            "buffer" : 0,
            "byteLength" : 1388,
            "byteOffset" : 18044
        },
        {
            "buffer" : 0,
            "byteLength" : 5552,
            "byteOffset" : 19432
        },
        {
            "buffer" : 0,
            "byteLength" : 2208,
            "byteOffset" : 24984
        },
        {
            "buffer" : 0,
            "byteLength" : 1024,
            "byteOffset" : 27192
        }
    ],
    "buffers" : [
        {
            "byteLength" : 28216,
            "uri" : "HANDS-192604390058b3f5d5394cf729104e80.bin"
        }
    ]
}
