{
    "asset" : {
        "generator" : "Khronos glTF Blender I/O v3.2.43",
        "version" : "2.0"
    },
    "scene" : 0,
    "scenes" : [
        {
            "name" : "Scene",
            "nodes" : [
                0,
                18
            ]
        }
    ],
    "nodes" : [
        {
            "camera" : 0,
            "extras" : {
                "ant_landscape" : {}
            },
            "name" : "Camera",
            "rotation" : [
                -0.027141140773892403,
                -0.7065868973731995,
                -0.027142828330397606,
                0.7065845131874084
            ],
            "translation" : [
                -4.062541961669922,
                6.314947128295898,
                -1.536499261856079
            ]
        },
        {
            "name" : "Bone.003",
            "rotation" : [
                0.1348758339881897,
                -0.11169712245464325,
                -0.20258834958076477,
                0.9634782075881958
            ],
            "scale" : [
                1.0000001192092896,
                1,
                1
            ],
            "translation" : [
                -5.960464477539063e-08,
                0.4847780764102936,
                5.960464477539063e-08
            ]
        },
        {
            "children" : [
                1
            ],
            "name" : "Bone.002",
            "rotation" : [
                -0.10308312624692917,
                -0.15244725346565247,
                -0.29849913716316223,
                0.9364999532699585
            ],
            "scale" : [
                1,
                0.9999998807907104,
                0.9999998211860657
            ],
            "translation" : [
                -4.470348358154297e-08,
                1.1392508745193481,
                -2.9243528842926025e-07
            ]
        },
        {
            "children" : [
                2
            ],
            "name" : "Bone.001",
            "rotation" : [
                0.285898357629776,
                -0.06344377994537354,
                -0.19812005758285522,
                0.9354065656661987
            ],
            "translation" : [
                -2.4959444999694824e-07,
                2.9215657711029053,
                4.842877388000488e-08
            ]
        },
        {
            "name" : "Bone.006",
            "rotation" : [
                0.010192328132689,
                0.0006772564956918359,
                -0.06681207567453384,
                0.9977132678031921
            ],
            "scale" : [
                0.9999999403953552,
                1.0000001192092896,
                1
            ],
            "translation" : [
                -1.4528632164001465e-07,
                0.6214798092842102,
                1.4528632164001465e-07
            ]
        },
        {
            "children" : [
                4
            ],
            "name" : "Bone.005",
            "rotation" : [
                0.10219681262969971,
                1.4511483570345263e-08,
                -0.0005680894828401506,
                0.9947641491889954
            ],
            "scale" : [
                1,
                0.9999999403953552,
                1
            ],
            "translation" : [
                7.450580596923828e-09,
                1.7442468404769897,
                0
            ]
        },
        {
            "children" : [
                5
            ],
            "name" : "Bone.004",
            "rotation" : [
                -0.14496107399463654,
                2.094811790698259e-08,
                -0.021564984694123268,
                0.9892023205757141
            ],
            "scale" : [
                1,
                1,
                0.9999999403953552
            ],
            "translation" : [
                -2.4959444999694824e-07,
                2.9215657711029053,
                4.842877388000488e-08
            ]
        },
        {
            "name" : "Bone.009",
            "rotation" : [
                -0.020075734704732895,
                -0.0018471067305654287,
                -0.09371773153543472,
                0.995394766330719
            ],
            "scale" : [
                0.9999999403953552,
                0.9999999403953552,
                1
            ],
            "translation" : [
                -3.91155481338501e-08,
                0.6354846358299255,
                -2.9802322387695312e-08
            ]
        },
        {
            "children" : [
                7
            ],
            "name" : "Bone.008",
            "rotation" : [
                0.05177197605371475,
                1.777717750783836e-09,
                -8.579828136134893e-05,
                0.9986589550971985
            ],
            "scale" : [
                1,
                0.9999999403953552,
                1
            ],
            "translation" : [
                -1.4528632164001465e-07,
                1.6895760297775269,
                5.448237061500549e-08
            ]
        },
        {
            "children" : [
                8
            ],
            "name" : "Bone.007",
            "rotation" : [
                -0.05827440321445465,
                -1.5804994646373416e-08,
                -0.022075366228818893,
                0.9980565905570984
            ],
            "scale" : [
                1,
                0.9999999403953552,
                0.9999998807907104
            ],
            "translation" : [
                -2.4959444999694824e-07,
                2.9215657711029053,
                4.842877388000488e-08
            ]
        },
        {
            "name" : "Bone.012",
            "rotation" : [
                0.009473828598856926,
                0.000777293520513922,
                -0.08166700601577759,
                0.9966143369674683
            ],
            "scale" : [
                0.9999999403953552,
                1,
                0.9999999403953552
            ],
            "translation" : [
                -5.4016709327697754e-08,
                0.6296640038490295,
                2.7567148208618164e-07
            ]
        },
        {
            "children" : [
                10
            ],
            "name" : "Bone.011",
            "rotation" : [
                -0.028011981397867203,
                3.959674810261049e-09,
                -6.352216587401927e-05,
                0.9996076226234436
            ],
            "scale" : [
                0.9999999403953552,
                1,
                0.9999999403953552
            ],
            "translation" : [
                -1.3969838619232178e-08,
                1.6715227365493774,
                2.0489096641540527e-07
            ]
        },
        {
            "children" : [
                11
            ],
            "name" : "Bone.010",
            "rotation" : [
                0.03032761439681053,
                -2.6474014092059406e-08,
                -0.022075535729527473,
                0.999296247959137
            ],
            "scale" : [
                1,
                1,
                0.9999999403953552
            ],
            "translation" : [
                -2.4959444999694824e-07,
                2.9215657711029053,
                4.842877388000488e-08
            ]
        },
        {
            "name" : "Bone.015",
            "rotation" : [
                -0.011968109756708145,
                -0.001980951288715005,
                -0.14778262376785278,
                0.988945484161377
            ],
            "scale" : [
                1,
                1,
                0.9999999403953552
            ],
            "translation" : [
                -4.307366907596588e-08,
                0.5626271367073059,
                4.470348358154297e-08
            ]
        },
        {
            "children" : [
                13
            ],
            "name" : "Bone.014",
            "rotation" : [
                -0.09550324827432632,
                -4.561046207385289e-09,
                -0.0006088819936849177,
                0.9954289793968201
            ],
            "scale" : [
                1,
                0.9999999403953552,
                1
            ],
            "translation" : [
                -2.484302967786789e-07,
                1.6922389268875122,
                1.1920928955078125e-07
            ]
        },
        {
            "children" : [
                14
            ],
            "name" : "Bone.013",
            "rotation" : [
                0.12213727831840515,
                -3.683881288907287e-08,
                -0.02152271382510662,
                0.9922798275947571
            ],
            "scale" : [
                1,
                1,
                0.9999999403953552
            ],
            "translation" : [
                -2.4959444999694824e-07,
                2.9215657711029053,
                4.842877388000488e-08
            ]
        },
        {
            "children" : [
                3,
                6,
                9,
                12,
                15
            ],
            "name" : "Bone",
            "rotation" : [
                0.05514942482113838,
                -0.042463839054107666,
                -0.5499311685562134,
                0.8323047161102295
            ],
            "scale" : [
                0.9999998807907104,
                0.9999998211860657,
                1
            ]
        },
        {
            "extras" : {
                "ant_landscape" : {}
            },
            "mesh" : 0,
            "name" : "Cube",
            "skin" : 0
        },
        {
            "children" : [
                17,
                16
            ],
            "extras" : {
                "ant_landscape" : {}
            },
            "name" : "Armature",
            "translation" : [
                -4.49983549118042,
                -0.08104538917541504,
                -3.734696865081787
            ]
        }
    ],
    "cameras" : [
        {
            "name" : "Camera.001",
            "perspective" : {
                "aspectRatio" : 1.7777777777777777,
                "yfov" : 0.39959652046304894,
                "zfar" : 1000,
                "znear" : 0.10000000149011612
            },
            "type" : "perspective"
        }
    ],
    "materials" : [
        {
            "doubleSided" : true,
            "name" : "Material.001",
            "pbrMetallicRoughness" : {}
        }
    ],
    "meshes" : [
        {
            "name" : "Cube.001",
            "primitives" : [
                {
                    "attributes" : {
                        "POSITION" : 0,
                        "NORMAL" : 1,
                        "TANGENT" : 2,
                        "TEXCOORD_0" : 3,
                        "JOINTS_0" : 4,
                        "JOINTS_1" : 5,
                        "WEIGHTS_1" : 6
                    },
                    "indices" : 7,
                    "material" : 0
                }
            ]
        }
    ],
    "skins" : [
        {
            "inverseBindMatrices" : 8,
            "joints" : [
                16,
                3,
                2,
                1,
                6,
                5,
                4,
                9,
                8,
                7,
                12,
                11,
                10,
                15,
                14,
                13
            ],
            "name" : "Armature"
        }
    ],
    "accessors" : [
        {
            "bufferView" : 0,
            "componentType" : 5126,
            "count" : 347,
            "max" : [
                1.0444586277008057,
                2.1025729179382324,
                -2.0194287300109863
            ],
            "min" : [
                -4.777555465698242,
                -0.5356321334838867,
                -4.455874919891357
            ],
            "type" : "VEC3"
        },
        {
            "bufferView" : 1,
            "componentType" : 5126,
            "count" : 347,
            "type" : "VEC3"
        },
        {
            "bufferView" : 2,
            "componentType" : 5126,
            "count" : 347,
            "type" : "VEC4"
        },
        {
            "bufferView" : 3,
            "componentType" : 5126,
            "count" : 347,
            "type" : "VEC2"
        },
        {
            "bufferView" : 4,
            "componentType" : 5121,
            "count" : 347,
            "type" : "VEC4"
        },
        {
            "bufferView" : 5,
            "componentType" : 5121,
            "count" : 347,
            "type" : "VEC4"
        },
        {
            "bufferView" : 6,
            "componentType" : 5126,
            "count" : 347,
            "type" : "VEC4"
        },
        {
            "bufferView" : 7,
            "componentType" : 5123,
            "count" : 1104,
            "type" : "SCALAR"
        },
        {
            "bufferView" : 8,
            "componentType" : 5126,
            "count" : 16,
            "type" : "MAT4"
        }
    ],
    "bufferViews" : [
        {
            "buffer" : 0,
            "byteLength" : 4164,
            "byteOffset" : 0
        },
        {
            "buffer" : 0,
            "byteLength" : 4164,
            "byteOffset" : 4164
        },
        {
            "buffer" : 0,
            "byteLength" : 5552,
            "byteOffset" : 8328
        },
        {
            "buffer" : 0,
            "byteLength" : 2776,
            "byteOffset" : 13880
        },
        {
            "buffer" : 0,
            "byteLength" : 1388,
            "byteOffset" : 16656
        },
        {
            "buffer" : 0,
            "byteLength" : 1388,
            "byteOffset" : 18044
        },
        {
            "buffer" : 0,
            "byteLength" : 5552,
            "byteOffset" : 19432
        },
        {
            "buffer" : 0,
            "byteLength" : 2208,
            "byteOffset" : 24984
        },
        {
            "buffer" : 0,
            "byteLength" : 1024,
            "byteOffset" : 27192
        }
    ],
    "buffers" : [
        {
            "byteLength" : 28216,
            "uri" : "HANDS-ecf4c23dbcf93e11d3d06926a0f02858.bin"
        }
    ]
}
